<svg xmlns="http://www.w3.org/2000/svg"
 xmlns:xlink="http://www.w3.org/1999/xlink"
 width="123px" height="124px"  viewBox="0 0 123 124">
<path fill-rule="evenodd"  fill="#ffb534"
 d="M61.988647,122.99402 C61.61441,122.99402 61.24066,122.99042 60.868164,122.98395 C60.5437,122.97711 60.286316,122.70764 60.292053,122.38104 C60.29834,122.054016 60.557434,121.805115 60.889893,121.79944 C62.238007,121.82526 63.60843,121.803894 64.95654,121.73663 C65.27927,121.71124 65.55554,121.971436 65.57214,122.298096 C65.58826,122.62427 65.3389,122.901794 65.015015,122.9187 C64.01309,122.96826 62.995148,122.99402 61.988647,122.99402 ZM56.779053,122.76648 C56.7619,122.76648 56.7453,122.76605 56.72757,122.764465 C55.356445,122.64484 53.97171,122.47449 52.611572,122.26019 C52.291718,122.209045 52.072784,121.90619 52.12268,121.58362 C52.173035,121.26141 52.47104,121.0387 52.793762,121.09064 C54.127014,121.30127 55.484863,121.46759 56.82953,121.58563 C57.152252,121.61383 57.391205,121.90057 57.36316,122.22595 C57.336853,122.53406 57.080505,122.76648 56.779053,122.76648 ZM69.07654,122.572754 C68.78311,122.572754 68.529724,122.35162 68.49414,122.05078 C68.45581,121.72534 68.68619,121.431335 69.00775,121.39307 C70.35071,121.23242 71.70227,121.022156 73.025665,120.76886 C73.34723,120.70642 73.65155,120.91943 73.71185,121.24005 C73.77252,121.561035 73.563416,121.87073 73.24469,121.93158 C71.89487,122.18976 70.51575,122.40399 69.146454,122.568726 C69.122986,122.571106 69.09943,122.572754 69.07654,122.572754 ZM48.67151,121.48334 C48.62799,121.48334 48.58383,121.478455 48.539764,121.46838 C47.196106,121.158264 45.848022,120.797 44.532043,120.39386 C44.221466,120.299255 44.0466,119.96857 44.140656,119.65607 C44.23462,119.34308 44.5625,119.16632 44.872498,119.26178 C46.16272,119.65643 47.485077,120.010864 48.802307,120.31537 C49.118042,120.38782 49.315216,120.7052 49.24301,121.0238 C49.18109,121.29767 48.93918,121.48334 48.67151,121.48334 ZM77.13934,121.02942 C76.87924,121.02942 76.64188,120.85382 76.57254,120.587585 C76.49002,120.27142 76.67737,119.94806 76.99094,119.86548 C78.29486,119.51953 79.604645,119.122375 80.88397,118.685425 C81.19287,118.58191 81.52472,118.746216 81.62854,119.05597 C81.73221,119.365234 81.56766,119.70154 81.26105,119.806274 C79.95599,120.25214 78.61987,120.65686 77.28894,121.009705 C77.239044,121.02295 77.18927,121.02942 77.13934,121.02942 ZM40.811005,119.07849 C40.74109,119.07849 40.670593,119.065186 40.601807,119.038635 C39.314453,118.54407 38.0271,117.99634 36.775818,117.4115 C36.48181,117.27417 36.354004,116.92218 36.490417,116.62573 C36.62625,116.329346 36.97357,116.20007 37.26996,116.33777 C38.49655,116.91089 39.75815,117.447754 41.020203,117.93347 C41.322906,118.049866 41.474762,118.391785 41.359528,118.69708 C41.27014,118.93353 41.04721,119.07849 40.811005,119.07849 ZM84.90759,118.3761 C84.678375,118.3761 84.4606,118.2392 84.36597,118.012024 C84.241,117.71118 84.38199,117.36401 84.681244,117.237915 C85.92383,116.71399 87.165405,116.13806 88.37128,115.527466 C88.663666,115.38129 89.013855,115.49884 89.159424,115.79083 C89.30499,116.08246 89.18805,116.43805 88.89862,116.584656 C87.66803,117.2077 86.401855,117.79492 85.13397,118.32977 C85.06006,118.361206 84.983246,118.3761 84.90759,118.3761 ZM33.356323,115.5943 C33.26065,115.5943 33.163727,115.56976 33.07376,115.52063 C31.867798,114.850464 30.66867,114.12915 29.510315,113.37598 C29.238037,113.19879 29.159546,112.8327 29.334991,112.55798 C29.510864,112.2829 29.87378,112.20398 30.146606,112.381165 C31.282532,113.119446 32.45761,113.82745 33.640015,114.48352 C33.923706,114.64099 34.027527,115.001465 33.871094,115.28821 C33.763855,115.48358 33.563232,115.5943 33.356323,115.5943 ZM92.236176,114.66315 C92.03555,114.66315 91.84021,114.55963 91.73068,114.37317 C91.56555,114.09247 91.6579,113.72919 91.93646,113.56244 C93.09598,112.870544 94.24747,112.12744 95.358826,111.35376 C95.625916,111.16693 95.99167,111.23578 96.17557,111.504395 C96.35959,111.773865 96.29254,112.142334 96.026,112.32764 C94.891785,113.11664 93.717285,113.87457 92.53485,114.58099 C92.440796,114.63696 92.33768,114.66315 92.236176,114.66315 ZM26.453583,111.10651 C26.331482,111.10651 26.208221,111.06903 26.102844,110.98889 C24.99768,110.15643 23.908752,109.276 22.866669,108.3714 C22.620728,108.15796 22.593262,107.785034 22.804749,107.53693 C23.015686,107.28845 23.387726,107.26184 23.632385,107.47449 C24.653778,108.36139 25.721619,109.22485 26.805481,110.04083 C27.065155,110.23657 27.1185,110.60791 26.924164,110.8689 C26.80893,111.02472 26.632446,111.10651 26.453583,111.10651 ZM98.98932,109.966736 C98.81619,109.966736 98.64545,109.890625 98.529724,109.74359 C98.32788,109.487854 98.36975,109.11572 98.62311,108.91193 C99.675415,108.06738 100.71521,107.17163 101.71417,106.24933 C101.95325,106.028625 102.32471,106.045166 102.54364,106.28601 C102.76257,106.52722 102.74655,106.90137 102.50748,107.12213 C101.48837,108.06293 100.42752,108.97595 99.3544,109.83826 C99.246155,109.92444 99.11716,109.966736 98.98932,109.966736 ZM20.229492,105.70807 C20.080505,105.70807 19.931488,105.65088 19.816833,105.53729 C18.836731,104.56061 17.878296,103.53845 16.96814,102.498535 C16.753693,102.25409 16.776703,101.87952 17.020233,101.66327 C17.262146,101.447754 17.633636,101.46991 17.848541,101.715576 C18.740967,102.73535 19.68097,103.73743 20.64215,104.69513 C20.872528,104.92511 20.874817,105.29968 20.646729,105.53168 C20.532074,105.64923 20.380798,105.70807 20.229492,105.70807 ZM105.04257,104.378174 C104.897125,104.378174 104.751434,104.32422 104.63803,104.215454 C104.402954,103.9895 104.3938,103.61578 104.61731,103.378174 C105.54761,102.393005 106.456604,101.36157 107.318695,100.31244 C107.525024,100.06152 107.895355,100.025696 108.144714,100.234314 C108.39453,100.4433 108.428986,100.81586 108.221985,101.067566 C107.343414,102.1369 106.416565,103.18927 105.46796,104.19452 C105.35272,104.31653 105.19742,104.378174 105.04257,104.378174 ZM14.800995,99.5025 C14.62439,99.5025 14.450104,99.42273 14.334412,99.270935 C13.499908,98.173035 12.68988,97.028015 11.927032,95.86853 C11.747589,95.59662 11.821625,95.22894 12.091614,95.048096 C12.36145,94.86688 12.725494,94.9422 12.904938,95.21442 C13.653503,96.35217 14.447815,97.47424 15.266418,98.55078 C15.463593,98.81061 15.414856,99.18109 15.157471,99.38049 C15.050934,99.46265 14.9253845,99.5025 14.800995,99.5025 ZM110.280304,98.003845 C110.16162,98.003845 110.04248,97.967224 109.93869,97.8927 C109.67502,97.70221 109.61484,97.33209 109.804016,97.06665 C110.59503,95.95587 111.35501,94.808044 112.062256,93.65497 C112.23312,93.37628 112.59476,93.29132 112.870544,93.46289 C113.14624,93.63489 113.23105,93.99933 113.06076,94.27765 C112.3392,95.453674 111.56421,96.624084 110.75775,97.75659 C110.64307,97.91809 110.463196,98.003845 110.280304,98.003845 ZM10.27005,92.60742 C10.06543,92.60742 9.867096,92.49951 9.758728,92.30701 C9.080078,91.10156 8.434753,89.85626 7.840332,88.60535 C7.6999207,88.31012 7.823181,87.95691 8.1154785,87.815125 C8.4088745,87.67297 8.758606,87.79901 8.898346,88.093445 C9.481873,89.319824 10.114624,90.54132 10.78009,91.723816 C10.940094,92.00775 10.840881,92.36859 10.558899,92.53009 C10.467804,92.58246 10.368011,92.60742 10.27005,92.60742 ZM114.60147,90.961 C114.509125,90.961 114.41574,90.93884 114.32864,90.89252 C114.04199,90.74072 113.93143,90.38226 114.0827,90.09308 C114.71387,88.88403 115.309296,87.641174 115.85266,86.39868 C115.98346,86.09985 116.33081,85.964905 116.626526,86.0954 C116.92337,86.22748 117.057495,86.57666 116.92682,86.875916 C116.37256,88.1438 115.765015,89.41162 115.1214,90.64484 C115.01645,90.8454 114.81238,90.961 114.60147,90.961 ZM6.7261353,85.152954 C6.492798,85.152954 6.2716064,85.01123 6.1803894,84.77881 C5.6743164,83.490845 5.2054443,82.16577 4.7870483,80.84076 C4.6889954,80.52899 4.8598633,80.19592 5.168152,80.09729 C5.4788513,79.99902 5.807312,80.17096 5.9058228,80.48151 C6.3157654,81.78119 6.77536,83.07965 7.2717896,84.342224 C7.39093,84.645935 7.2436523,84.990234 6.942108,85.11029 C6.8710327,85.138855 6.7982483,85.152954 6.7261353,85.152954 ZM117.91559,83.38086 C117.84967,83.38086 117.78201,83.3692 117.716675,83.34546 C117.411804,83.23468 117.25354,82.89557 117.36362,82.58826 C117.819885,81.31073 118.23828,79.9978 118.60681,78.68524 C118.69446,78.3703 119.02005,78.18945 119.33133,78.27722 C119.64307,78.365845 119.82422,78.69287 119.73599,79.00745 C119.360504,80.34656 118.93353,81.68573 118.46753,82.98901 C118.38159,83.230225 118.15567,83.38086 117.91559,83.38086 ZM4.238556,77.26636 C3.9743042,77.26636 3.7341003,77.08551 3.6687622,76.81445 C3.3444214,75.46887 3.0628967,74.09149 2.8313904,72.72015 C2.7769165,72.39795 2.9918213,72.092224 3.3111267,72.03668 C3.6315613,71.9823 3.9335632,72.19934 3.988037,72.52075 C4.2155457,73.86554 4.4918213,75.21594 4.809387,76.53534 C4.8861694,76.85315 4.6924133,77.172485 4.3778076,77.250244 C4.33136,77.261536 4.2843323,77.26636 4.238556,77.26636 ZM120.15265,75.417725 C120.11307,75.417725 120.07245,75.4137 120.03171,75.40564 C119.71481,75.33838 119.51123,75.025024 119.57782,74.704895 C119.854095,73.371765 120.08731,72.01373 120.27191,70.66693 C120.3154,70.34393 120.60208,70.11676 120.93338,70.16144 C121.25427,70.20618 121.47891,70.50421 121.434296,70.8288 C121.246826,72.20178 121.00845,73.58765 120.72635,74.9469 C120.66858,75.22644 120.42493,75.417725 120.15265,75.417725 ZM2.8605652,69.1095 C2.562561,69.1095 2.3074646,68.88196 2.2771606,68.57666 C2.1401672,67.1944 2.0489502,65.791626 2.0065918,64.405396 C1.9968872,64.078735 2.2512817,63.805664 2.5751343,63.79602 C2.9013062,63.78235 3.1695557,64.04169 3.18042,64.36914 C3.2217407,65.72803 3.3105469,67.10382 3.4452515,68.459045 C3.477295,68.784485 3.24234,69.07446 2.9196167,69.107056 C2.8995972,69.1087 2.880005,69.1095 2.8605652,69.1095 ZM121.27374,67.22101 C121.26068,67.22101 121.246826,67.22058 121.23309,67.21979 C120.90979,67.19806 120.66571,66.91528 120.68744,66.58948 C120.77911,65.233826 120.82556,63.85565 120.82556,62.493103 C120.82556,61.247803 120.78668,59.986023 120.70978,58.741943 C120.68973,58.41571 120.93567,58.13501 121.25885,58.11487 C121.59073,58.09149 121.86127,58.342834 121.88141,58.66864 C121.9599,59.936462 121.99939,61.223694 121.99939,62.493103 C121.99939,63.882202 121.951904,65.28778 121.85898,66.67041 C121.8378,66.982544 121.579865,67.22101 121.27374,67.22101 ZM2.6066284,60.838623 C2.5991821,60.838623 2.5917358,60.838623 2.5842896,60.838257 C2.260437,60.826538 2.0077515,60.55188 2.0197754,60.22528 C2.0706787,58.834534 2.169342,57.431763 2.3137817,56.05597 C2.3476562,55.730957 2.639923,55.496155 2.9586487,55.529175 C3.28125,55.563843 3.5151672,55.854614 3.480835,56.180054 C3.3397217,57.529236 3.24292,58.905457 3.1924438,60.269165 C3.1809998,60.588135 2.9207764,60.838623 2.6066284,60.838623 ZM120.898926,55.17682 C120.60895,55.17682 120.35672,54.960144 120.31769,54.662903 C120.141235,53.313293 119.915436,51.953186 119.64719,50.620117 C119.5824,50.2995 119.7876,49.987366 120.10504,49.92212 C120.426636,49.8573 120.73276,50.064697 120.796844,50.38452 C121.0715,51.7442 121.3013,53.131226 121.48132,54.507812 C121.52368,54.83203 121.29788,55.129272 120.97629,55.17157 C120.94998,55.17517 120.9241,55.17682 120.898926,55.17682 ZM3.4704285,52.610474 C3.4366455,52.610474 3.4022217,52.608093 3.3678894,52.601624 C3.048584,52.54486 2.8353882,52.238342 2.8920288,51.91577 C3.1311035,50.548035 3.4210815,49.172607 3.7529907,47.826233 C3.8310242,47.50885 4.1502075,47.31433 4.4643555,47.39569 C4.7790527,47.47461 4.97052,47.795227 4.892578,48.11261 C4.5664062,49.432007 4.282593,50.78119 4.0476685,52.12152 C3.9977722,52.40869 3.7502441,52.610474 3.4704285,52.610474 ZM119.26425,47.06909 C119.0069,47.06909 118.77078,46.896667 118.699036,46.63452 C118.34027,45.32556 117.92987,44.010193 117.47943,42.725037 C117.37106,42.416504 117.531494,42.078613 117.83707,41.969482 C118.14365,41.861145 118.47781,42.022644 118.58563,42.330322 C119.04578,43.641663 119.464294,44.983643 119.830505,46.319153 C119.91702,46.634094 119.7337,46.9599 119.421265,47.046936 C119.36908,47.061035 119.31644,47.06909 119.26425,47.06909 ZM5.4536743,44.581665 C5.3934937,44.581665 5.3327026,44.571594 5.272522,44.552307 C4.9641113,44.4516 4.7950745,44.117737 4.8953247,43.806824 C5.3201294,42.48822 5.796997,41.164368 6.3133545,39.87195 C6.434906,39.5683 6.777069,39.42328 7.077484,39.54413 C7.377777,39.666565 7.523346,40.010925 7.4023743,40.314148 C6.895752,41.58081 6.4280396,42.879272 6.0119324,44.17169 C5.9317017,44.42218 5.701233,44.581665 5.4536743,44.581665 ZM116.53369,39.27185 C116.30664,39.27185 116.090576,39.138123 115.99423,38.91504 C115.46057,37.672913 114.87372,36.428467 114.25073,35.21698 C114.101715,34.927002 114.21341,34.569763 114.5018,34.41913 C114.78836,34.269714 115.14371,34.381287 115.292694,34.672485 C115.928314,35.90808 116.52673,37.177185 117.0719,38.44458 C117.200195,38.744263 117.06378,39.093018 116.76636,39.222717 C116.690704,39.255737 116.61105,39.27185 116.53369,39.27185 ZM8.526978,36.897278 C8.440918,36.897278 8.3532715,36.87793 8.270752,36.837646 C7.979065,36.69464 7.8580933,36.34027 7.999634,36.04663 C8.602631,34.798096 9.257233,33.554016 9.944458,32.349792 C10.106628,32.067505 10.464935,31.969604 10.746338,32.132324 C11.027191,32.29547 11.123993,32.65674 10.961853,32.940247 C10.287781,34.121094 9.646454,35.340637 9.055481,36.564575 C8.9534,36.775635 8.7447815,36.897278 8.526978,36.897278 ZM112.7576,31.932556 C112.559845,31.932556 112.36667,31.831482 112.25601,31.64862 C111.554504,30.489136 110.80249,29.338074 110.02121,28.226501 C109.83374,27.959473 109.89566,27.590515 110.16049,27.401245 C110.42529,27.212341 110.791626,27.275208 110.97839,27.54181 C111.775696,28.67511 112.542694,29.849548 113.257935,31.03241 C113.42709,31.311523 113.339294,31.675598 113.06247,31.845947 C112.96738,31.904358 112.86188,31.932556 112.7576,31.932556 ZM12.625244,29.720276 C12.512848,29.720276 12.398743,29.687622 12.298523,29.619568 C12.029694,29.437561 11.958038,29.069824 12.138641,28.798767 C12.906525,27.645325 13.724548,26.5047 14.569458,25.408875 C14.7682495,25.151062 15.136871,25.10315 15.393097,25.304504 C15.649231,25.505127 15.695679,25.876831 15.496796,26.13501 C14.667999,27.209106 13.866119,28.327942 13.112976,29.458069 C12.999451,29.628052 12.814301,29.720276 12.625244,29.720276 ZM108.01346,25.183716 C107.84317,25.183716 107.67459,25.109985 107.55832,24.967041 C106.701385,23.91101 105.799255,22.873535 104.87756,21.8844 C104.65518,21.646362 104.667206,21.271423 104.90329,21.048279 C105.139496,20.824768 105.511536,20.83606 105.73276,21.074463 C106.67334,22.083374 107.59323,23.140991 108.46735,24.21753 C108.672516,24.470459 108.635315,24.843811 108.38425,25.049988 C108.27542,25.140198 108.14404,25.183716 108.01346,25.183716 ZM17.662811,23.182068 C17.52353,23.182068 17.383698,23.132507 17.271881,23.031433 C17.029968,22.813965 17.009338,22.439758 17.224976,22.19574 C18.140839,21.162292 19.106018,20.146118 20.093079,19.175476 C20.325165,18.947937 20.696655,18.9516 20.923004,19.185974 C21.149475,19.419556 21.144897,19.794556 20.91272,20.02246 C19.944641,20.974182 18.998901,21.971008 18.100769,22.984314 C17.984375,23.114807 17.823944,23.182068 17.662811,23.182068 ZM102.39166,19.152527 C102.24896,19.152527 102.10568,19.10022 101.99283,18.99469 C101.00064,18.067139 99.96597,17.164185 98.917114,16.311157 C98.66489,16.105347 98.62543,15.733215 98.82889,15.479065 C99.03293,15.224915 99.40201,15.184692 99.654236,15.389648 C100.723816,16.260437 101.77963,17.181519 102.79059,18.127136 C103.028534,18.34906 103.04227,18.723999 102.822205,18.963257 C102.70636,19.088928 102.54938,19.152527 102.39166,19.152527 ZM23.54071,17.404236 C23.37387,17.404236 23.208862,17.332947 23.093018,17.19519 C22.88269,16.94629 22.913147,16.57257 23.160095,16.361511 C24.210205,15.462158 25.303802,14.588989 26.410675,13.766602 C26.671387,13.572449 27.038849,13.628418 27.231323,13.891418 C27.42395,14.154419 27.368439,14.524963 27.107605,14.718262 C26.022034,15.525391 24.949615,16.381226 23.920227,17.263245 C23.80954,17.358276 23.674866,17.404236 23.54071,17.404236 ZM96.000824,13.953064 C95.88443,13.953064 95.76758,13.918823 95.66495,13.845947 C94.560486,13.067444 93.412415,12.315918 92.25278,11.613098 C91.974915,11.445129 91.88483,11.081482 92.0517,10.801147 C92.218445,10.52124 92.57892,10.429443 92.8569,10.599365 C94.04056,11.315857 95.21152,12.082275 96.33786,12.876892 C96.60324,13.063782 96.66803,13.433105 96.48227,13.700562 C96.368164,13.864868 96.185974,13.953064 96.000824,13.953064 ZM30.144897,12.49469 C29.950562,12.49469 29.760803,12.397644 29.649017,12.220459 C29.474823,11.945374 29.555634,11.578857 29.82904,11.403259 C30.990845,10.658569 32.19281,9.946106 33.401062,9.284424 C33.6882,9.128967 34.04239,9.235291 34.197235,9.5224 C34.35196,9.80957 34.24646,10.168823 33.96161,10.324707 C32.776337,10.972717 31.59784,11.672302 30.459473,12.4021 C30.361511,12.464905 30.252563,12.49469 30.144897,12.49469 ZM88.96054,9.6883545 C88.87048,9.6883545 88.77936,9.667847 88.694,9.623108 C87.492615,9.004883 86.25229,8.420898 85.007385,7.8860474 C84.70929,7.7579956 84.57001,7.4108276 84.697266,7.1099854 C84.824524,6.809082 85.16901,6.668152 85.46698,6.7974243 C86.73718,7.341919 88.0022,7.9379883 89.22821,8.569519 C89.51648,8.71814 89.631165,9.074585 89.48389,9.365356 C89.380066,9.570374 89.17432,9.6883545 88.96054,9.6883545 ZM37.353058,8.549805 C37.130127,8.549805 36.91693,8.422119 36.818268,8.204224 C36.684143,7.906616 36.81369,7.555786 37.108826,7.420471 C38.360138,6.8445435 39.64749,6.3064575 40.934814,5.8199463 C41.23752,5.7043457 41.576843,5.8606567 41.690247,6.166748 C41.803772,6.4728394 41.650208,6.8135376 41.346375,6.928711 C40.084198,7.404785 38.822693,7.932373 37.59613,8.497009 C37.516937,8.533264 37.434418,8.549805 37.353058,8.549805 ZM81.39978,6.444641 C81.33612,6.444641 81.27136,6.433777 81.20831,6.4119873 C79.933655,5.9677734 78.62616,5.5634155 77.321655,5.2094116 C77.00867,5.1243896 76.82306,4.7998047 76.90729,4.48407 C76.991516,4.1674805 77.31708,3.9813843 77.626526,4.0664062 C78.95749,4.4276733 80.29129,4.840454 81.59122,5.293152 C81.89783,5.4002686 82.06067,5.7369995 81.95459,6.0458984 C81.87036,6.290344 81.6434,6.444641 81.39978,6.444641 ZM45.03363,5.64917 C44.780273,5.64917 44.54706,5.482849 44.470703,5.225891 C44.37848,4.9125366 44.555634,4.58313 44.86621,4.4904785 C46.18686,4.0949707 47.537262,3.741394 48.88025,3.4396973 C49.197693,3.3708496 49.51068,3.5698242 49.581177,3.888794 C49.651123,4.2077637 49.45221,4.523926 49.135773,4.5947876 C47.818665,4.890442 46.49518,5.2371826 45.20096,5.624634 C45.144775,5.6411133 45.088562,5.64917 45.03363,5.64917 ZM73.47507,4.293152 C73.43787,4.293152 73.399994,4.289917 73.36154,4.2822876 C72.03702,4.020874 70.686035,3.8026123 69.34708,3.6342163 C69.02551,3.5939941 68.797424,3.2983398 68.837585,2.974121 C68.877625,2.6495361 69.17059,2.418335 69.492645,2.4598389 C70.85791,2.631775 72.2359,2.8544922 73.58746,3.1207275 C73.90561,3.1835938 74.1131,3.4940796 74.050476,3.8146973 C73.995544,4.096985 73.75018,4.293152 73.47507,4.293152 ZM53.0437,3.8493042 C52.7583,3.8493042 52.507782,3.6390991 52.463623,3.3458862 C52.415527,3.0228882 52.63617,2.7216187 52.956604,2.6724854 C54.315033,2.465454 55.700348,2.303955 57.07489,2.1915894 C57.398193,2.1661987 57.681305,2.4074707 57.70764,2.7337036 C57.7334,3.059143 57.492706,3.3450928 57.169983,3.3708496 C55.82187,3.4812012 54.46347,3.6398926 53.131958,3.8428955 C53.102173,3.8469238 53.072876,3.8493042 53.0437,3.8493042 ZM65.33087,3.2681274 C65.319885,3.2681274 65.30902,3.2677612 65.29758,3.267334 C63.95349,3.1920166 62.57788,3.1622314 61.232635,3.180359 C61.229797,3.180359 61.227478,3.180359 61.22522,3.180359 C60.904205,3.180359 60.642242,2.9193726 60.638245,2.5951538 C60.634216,2.268921 60.89389,2.0003052 61.217773,1.9962769 C62.595062,1.9781494 63.991943,2.008728 65.362915,2.0856934 C65.68622,2.1033936 65.93445,2.3828735 65.91614,2.7091064 C65.898865,3.024475 65.63977,3.2681274 65.33087,3.2681274 ZM61.989777,110.77301 C60.73288,110.77301 59.464417,110.72308 58.21826,110.62561 C57.89566,110.60022 57.653748,110.31592 57.679016,109.99005 C57.704193,109.66345 57.970734,109.42102 58.31006,109.44556 C59.525177,109.541016 60.762634,109.58972 61.988647,109.58972 C61.988647,109.58972 62.362976,109.58771 62.362976,109.58771 C62.364136,109.58771 62.365845,109.58771 62.366974,109.58771 C62.689148,109.58771 62.95166,109.85034 62.95395,110.175354 C62.956238,110.50195 62.695312,110.76898 62.37097,110.77142 C62.37097,110.77142 61.989777,110.77301 61.989777,110.77301 ZM66.46683,110.561584 C66.167114,110.561584 65.91144,110.33203 65.88284,110.02594 C65.85297,109.7005 66.08975,109.41211 66.412476,109.38153 C67.75659,109.253845 69.108,109.065796 70.42923,108.82251 C70.749664,108.76611 71.053955,108.97717 71.11188,109.29816 C71.17035,109.619934 70.95886,109.92804 70.64014,109.98724 C69.28516,110.236145 67.89975,110.42865 66.52246,110.55914 C66.50357,110.56079 66.48526,110.561584 66.46683,110.561584 ZM54.189484,110.12744 C54.15802,110.12744 54.125305,110.125 54.09256,110.11896 C52.727844,109.89142 51.35971,109.60022 50.02591,109.25427 C49.711884,109.17212 49.522705,108.849915 49.603516,108.533325 C49.684998,108.2168 50.010437,108.02789 50.3183,108.10803 C51.619385,108.44513 52.953766,108.72949 54.285156,108.95221 C54.60446,109.00537 54.821106,109.31024 54.76776,109.63281 C54.720276,109.922 54.471466,110.12744 54.189484,110.12744 ZM74.53778,109.07703 C74.280396,109.07703 74.04361,108.90387 73.972534,108.64166 C73.8866,108.326294 74.07062,108.00049 74.382935,107.91431 C75.6824,107.55463 76.98062,107.13336 78.24213,106.66095 C78.5448,106.54816 78.884125,106.703674 78.99652,107.009766 C79.109344,107.31622 78.95462,107.65613 78.65021,107.77014 C77.35715,108.25421 76.02573,108.68677 74.693634,109.055725 C74.64145,109.07019 74.589386,109.07703 74.53778,109.07703 ZM46.24362,108.06738 C46.17874,108.06738 46.112823,108.05646 46.048157,108.03351 C44.7464,107.57037 43.44818,107.042786 42.190002,106.466 C41.894867,106.33069 41.76477,105.980286 41.898865,105.683105 C42.03244,105.38623 42.3786,105.25293 42.676147,105.3891 C43.90332,105.951294 45.168915,106.46521 46.438965,106.917114 C46.744537,107.026245 46.90497,107.36377 46.797302,107.671875 C46.711792,107.91553 46.485443,108.06738 46.24362,108.06738 ZM82.22797,106.19983 C82.007904,106.19983 81.79755,106.07495 81.697205,105.861084 C81.55792,105.56586 81.68289,105.2135 81.97586,105.0733 C83.18985,104.49255 84.39572,103.85016 85.560486,103.16351 C85.83905,102.997986 86.198975,103.09259 86.3634,103.37494 C86.526825,103.65723 86.43286,104.01892 86.153076,104.18445 C84.95978,104.88928 83.72348,105.54773 82.479065,106.14264 C82.397705,106.181274 82.31232,106.19983 82.22797,106.19983 ZM38.771088,104.64276 C38.673706,104.64276 38.574493,104.618225 38.4834,104.566284 C37.281433,103.88202 36.09375,103.136475 34.953674,102.34912 C34.686584,102.164246 34.618378,101.79657 34.80136,101.52673 C34.98471,101.25726 35.349304,101.188416 35.617554,101.37286 C36.72946,102.14093 37.887848,102.86865 39.059937,103.53601 C39.34262,103.69635 39.44229,104.05719 39.28299,104.34192 C39.17517,104.53485 38.975708,104.64276 38.771088,104.64276 ZM89.3067,102.020874 C89.12268,102.020874 88.94165,101.934326 88.827545,101.77118 C88.64011,101.504944 88.70203,101.13483 88.96683,100.94635 C90.06616,100.16101 91.14429,99.31683 92.17096,98.44043 C92.41849,98.22864 92.78937,98.26001 92.99802,98.50934 C93.20776,98.758606 93.17676,99.13196 92.92969,99.34302 C91.87741,100.24194 90.77237,101.10626 89.64545,101.91174 C89.54236,101.98547 89.424255,102.020874 89.3067,102.020874 ZM32.000763,99.96686 C31.870087,99.96686 31.73825,99.92297 31.628845,99.83276 C30.559845,98.9483 29.51831,98.00708 28.531952,97.03607 C28.300323,96.80774 28.295746,96.43274 28.522797,96.19916 C28.749146,95.965576 29.120056,95.96112 29.352722,96.18909 C30.314484,97.137146 31.330719,98.05542 32.37384,98.917725 C32.62436,99.12512 32.660522,99.49768 32.455322,99.75018 C32.33893,99.89319 32.17038,99.96686 32.000763,99.96686 ZM95.56583,96.67322 C95.41626,96.67322 95.26657,96.6156 95.15259,96.50122 C94.92212,96.27124 94.92096,95.8963 95.14905,95.66431 C96.09708,94.70172 97.01593,93.68402 97.8797,92.64044 C98.08661,92.38959 98.45639,92.35492 98.70621,92.565186 C98.95502,92.7746 98.98877,93.147156 98.7807,93.39807 C97.89575,94.46814 96.95401,95.51129 95.98251,96.49841 C95.86786,96.61438 95.71655,96.67322 95.56583,96.67322 ZM26.13031,94.186646 C25.96585,94.186646 25.801971,94.11737 25.685577,93.980835 C24.786194,92.92804 23.920227,91.82129 23.11145,90.69037 C22.922302,90.42578 22.981323,90.05524 23.244324,89.86432 C23.507996,89.6734 23.874329,89.73346 24.064056,89.99841 C24.852783,91.10156 25.697601,92.181335 26.575134,93.20917 C26.786621,93.457275 26.759033,93.8302 26.513214,94.043274 C26.402557,94.13989 26.266144,94.186646 26.13031,94.186646 ZM100.8212,90.32025 C100.705505,90.32025 100.58853,90.28558 100.48587,90.2135 C100.22049,90.02661 100.15515,89.657715 100.3403,89.38989 C101.11005,88.27545 101.84143,87.11438 102.51318,85.93634 C102.675354,85.65277 103.03369,85.555725 103.315094,85.71802 C103.59592,85.88153 103.69287,86.243225 103.53116,86.52637 C102.842224,87.733765 102.09253,88.92468 101.30322,90.06653 C101.18924,90.2312 101.00693,90.32025 100.8212,90.32025 ZM21.335114,87.47644 C21.13507,87.47644 20.940186,87.37335 20.8302,87.18768 C20.123962,85.9931 19.460327,84.75226 18.85849,83.49927 C18.717377,83.20526 18.839478,82.851685 19.131317,82.70947 C19.423584,82.566895 19.774933,82.690186 19.915466,82.983765 C20.50232,84.20532 21.149475,85.41638 21.83899,86.58191 C22.004578,86.86261 21.913483,87.225525 21.634949,87.39264 C21.540863,87.44946 21.437195,87.47644 21.335114,87.47644 ZM104.91199,83.146484 C104.82947,83.146484 104.74515,83.12915 104.6655,83.091675 C104.37149,82.95398 104.24365,82.602356 104.380066,82.30597 C104.9469,81.075134 105.46738,79.80328 105.92651,78.52496 C106.03705,78.217224 106.374664,78.05853 106.6785,78.16974 C106.98279,78.28125 107.1405,78.62036 107.030396,78.92767 C106.559265,80.23865 106.026184,81.542725 105.44507,82.804565 C105.345276,83.02002 105.13379,83.146484 104.91199,83.146484 ZM17.761353,80.03406 C17.524689,80.03406 17.301758,79.888245 17.212952,79.651855 C16.722229,78.35095 16.282654,77.01184 15.906616,75.673096 C15.818359,75.35895 15.999512,75.031494 16.31128,74.942505 C16.61853,74.85669 16.947449,75.036316 17.035797,75.35089 C17.402588,76.65662 17.83139,77.96228 18.309967,79.231384 C18.42511,79.53705 18.273254,79.8786 17.970093,79.994995 C17.901184,80.021545 17.83081,80.03406 17.761353,80.03406 ZM107.70618,75.3678 C107.65628,75.3678 107.60535,75.36133 107.5549,75.34766 C107.24133,75.263855 107.055115,74.9397 107.138214,74.6239 C107.483246,73.31616 107.77554,71.97302 108.00763,70.63104 C108.06381,70.30969 108.36194,70.09662 108.68683,70.14978 C109.0061,70.20618 109.21991,70.51306 109.1644,70.83447 C108.92645,72.20941 108.62674,73.58685 108.27301,74.92798 C108.203094,75.19299 107.96585,75.3678 107.70618,75.3678 ZM15.52597,72.07489 C15.249695,72.07489 15.003906,71.87799 14.949982,71.594055 C14.692627,70.23193 14.490295,68.83722 14.349304,67.44855 C14.316681,67.12311 14.551056,66.83234 14.873779,66.79932 C15.1883545,66.76227 15.484192,67.00232 15.517395,67.32733 C15.65506,68.68298 15.852112,70.043884 16.10321,71.37335 C16.16397,71.69391 15.954773,72.00366 15.636627,72.06488 C15.599335,72.07129 15.562134,72.07489 15.52597,72.07489 ZM109.11505,67.21936 C109.09848,67.21936 109.08118,67.218994 109.064026,67.21735 C108.7413,67.18915 108.50177,66.90283 108.529816,66.57739 C108.64447,65.23059 108.70297,63.85681 108.70297,62.493103 C108.70297,61.98889 108.69495,61.48706 108.67938,60.986023 C108.66852,60.65979 108.923035,60.385925 109.24689,60.375854 C109.582214,60.35736 109.84247,60.622375 109.85217,60.948975 C109.868774,61.461304 109.87677,61.97638 109.87677,62.493103 C109.87677,63.890686 109.81717,65.298645 109.699066,66.678894 C109.67273,66.98743 109.416504,67.21936 109.11505,67.21936 ZM14.693176,63.84839 C14.373444,63.84839 14.111481,63.588623 14.106201,63.265625 C14.102325,63.009033 14.100494,62.75171 14.100037,62.49475 C14.100037,61.358154 14.139526,60.20874 14.218597,59.07782 C14.241028,58.75122 14.51889,58.507507 14.844482,58.528076 C15.168335,58.551025 15.411987,58.834167 15.388977,59.159973 C15.312866,60.264343 15.273865,61.385193 15.273865,62.493103 C15.274414,62.74402 15.276154,62.996155 15.280151,63.246643 C15.285309,63.573303 15.026794,63.842346 14.702332,63.84839 C14.699463,63.84839 14.696045,63.84839 14.693176,63.84839 ZM108.96149,57.431763 C108.66794,57.431763 108.41467,57.210266 108.37909,56.90985 C108.22037,55.557007 108.001434,54.199707 107.728516,52.87506 C107.6626,52.555298 107.86676,52.241943 108.184204,52.175537 C108.50006,52.108643 108.8118,52.314453 108.878296,52.634216 C109.15753,53.99231 109.38217,55.38379 109.54492,56.77008 C109.582794,57.095093 109.352875,57.389526 109.03082,57.42737 C109.00784,57.430176 108.984375,57.431763 108.96149,57.431763 ZM15.266876,55.597656 C15.236542,55.597656 15.205658,55.595276 15.174622,55.590393 C14.854889,55.539246 14.635864,55.23639 14.68689,54.91382 C14.901794,53.53882 15.179779,52.156982 15.512238,50.806152 C15.590179,50.48883 15.907166,50.2959 16.223602,50.37445 C16.538208,50.453735 16.729675,50.77478 16.651733,51.091736 C16.32727,52.40912 16.056183,53.75708 15.845825,55.09784 C15.800507,55.389465 15.55069,55.597656 15.266876,55.597656 ZM107.29294,49.33374 C107.04013,49.33374 106.807495,49.168213 106.73068,48.91284 C106.34262,47.611572 105.89322,46.312683 105.39517,45.052917 C105.27478,44.749207 105.42148,44.405273 105.72302,44.284058 C106.02161,44.162415 106.36493,44.31024 106.48532,44.61432 C106.99652,45.90631 107.4574,47.237793 107.855194,48.571716 C107.948,48.884644 107.772095,49.215332 107.461975,49.30835 C107.40588,49.325684 107.34857,49.33374 107.29294,49.33374 ZM17.246124,47.572083 C17.183075,47.572083 17.118286,47.561646 17.055237,47.539856 C16.748535,47.433533 16.585815,47.096863 16.691315,46.787964 C17.139465,45.472595 17.651947,44.159607 18.214172,42.885315 C18.346008,42.587708 18.693909,42.45233 18.989075,42.585266 C19.285461,42.7182 19.418457,43.067383 19.28717,43.366577 C18.738098,44.609863 18.23822,45.88983 17.800934,47.17218 C17.717285,47.41742 17.489655,47.572083 17.246124,47.572083 ZM104.25568,41.652893 C104.04077,41.652893 103.83386,41.53369 103.73062,41.327087 C103.126495,40.117615 102.46045,38.917847 101.750916,37.760315 C101.58063,37.48242 101.66553,37.11798 101.94122,36.945984 C102.21692,36.775208 102.57855,36.859802 102.74939,37.13806 C103.47681,38.324158 104.159424,39.554565 104.7796,40.794617 C104.92517,41.08661 104.80878,41.44226 104.51935,41.589294 C104.43454,41.63275 104.34448,41.652893 104.25568,41.652893 ZM20.58197,40.010498 C20.485718,40.010498 20.388214,39.98712 20.298279,39.9364 C20.014587,39.778503 19.911926,39.41803 20.06903,39.13208 C20.737274,37.9162 21.46753,36.713623 22.240234,35.556885 C22.420685,35.286255 22.785309,35.214966 23.054688,35.396606 C23.323517,35.579468 23.394592,35.946777 23.21344,36.217834 C22.460297,37.346313 21.747772,38.519897 21.09616,39.705627 C20.988922,39.900146 20.7883,40.010498 20.58197,40.010498 ZM99.941956,34.618103 C99.76251,34.618103 99.58603,34.53595 99.470795,34.380066 C98.667755,33.293884 97.806244,32.22699 96.90982,31.210022 C96.694336,30.965576 96.716064,30.591797 96.95859,30.374756 C97.2005,30.157654 97.57129,30.178589 97.786804,30.42389 C98.70621,31.466614 99.58948,32.55963 100.41196,33.673218 C100.60571,33.935852 100.55179,34.305542 100.292114,34.50171 C100.18674,34.58026 100.06348,34.618103 99.941956,34.618103 ZM25.16568,33.148438 C25.036133,33.148438 24.906006,33.10498 24.797638,33.016785 C24.545532,32.81134 24.50592,32.438843 24.709412,32.184265 C25.57605,31.102478 26.50061,30.045288 27.457825,29.04004 C27.683044,28.804443 28.054382,28.79718 28.28772,29.023499 C28.521545,29.249878 28.528992,29.624023 28.304901,29.860046 C27.370026,30.840332 26.467896,31.872986 25.623108,32.92816 C25.506714,33.07312 25.337097,33.148438 25.16568,33.148438 ZM94.48987,28.43628 C94.34497,28.43628 94.19986,28.382324 94.086334,28.27478 C93.10855,27.341248 92.07745,26.439453 91.02219,25.59491 C90.76837,25.391907 90.72589,25.01941 90.92767,24.762817 C91.128845,24.507874 91.4986,24.464417 91.75244,24.667786 C92.834015,25.534119 93.89041,26.458435 94.89337,27.41455 C95.12903,27.638855 95.13931,28.014221 94.91638,28.251038 C94.80057,28.373901 94.64526,28.43628 94.48987,28.43628 ZM30.852692,27.18335 C30.689392,27.18335 30.5271,27.114868 30.410828,26.981995 C30.19751,26.735474 30.222229,26.361755 30.46634,26.146667 C31.504456,25.230408 32.595764,24.348816 33.70996,23.525574 C33.970184,23.332703 34.338226,23.389465 34.53015,23.652832 C34.72162,23.917053 34.664856,24.286804 34.403442,24.479675 C33.316833,25.283203 32.25244,26.143066 31.239044,27.03717 C31.127808,27.135437 30.990265,27.18335 30.852692,27.18335 ZM88.06354,23.290405 C87.9523,23.290405 87.84003,23.258545 87.740234,23.192139 C86.61737,22.442627 85.44754,21.732971 84.26398,21.084534 C83.979034,20.92865 83.87363,20.569824 84.02835,20.282288 C84.183655,19.995483 84.53955,19.888794 84.824524,20.045044 C86.03793,20.710388 87.23694,21.436523 88.388,22.204956 C88.65842,22.385803 88.73245,22.753113 88.55359,23.02539 C88.44061,23.197327 88.25375,23.290405 88.06354,23.290405 ZM37.47058,22.294373 C37.272278,22.294373 37.07852,22.192871 36.968414,22.009644 C36.799957,21.730164 36.888184,21.366455 37.16504,21.1969 C38.345825,20.473938 39.57126,19.795715 40.808136,19.179932 C41.097565,19.034973 41.45117,19.154968 41.593994,19.448181 C41.737854,19.740967 41.61862,20.095764 41.328064,20.240784 C40.12149,20.840881 38.92581,21.503784 37.774994,22.208618 C37.6792,22.266602 37.5744,22.294373 37.47058,22.294373 ZM80.85181,19.339844 C80.773895,19.339844 80.694244,19.324097 80.61801,19.290283 C79.38388,18.748596 78.11029,18.254395 76.831635,17.823853 C76.52435,17.719543 76.358185,17.384094 76.4613,17.074768 C76.564514,16.764648 76.89813,16.598694 77.20413,16.700989 C78.515625,17.143616 79.82184,17.649475 81.08676,18.204895 C81.38373,18.335754 81.52014,18.68457 81.390625,18.984192 C81.29425,19.20691 81.078766,19.339844 80.85181,19.339844 ZM44.82434,18.632996 C44.589386,18.632996 44.368164,18.490051 44.27765,18.256042 C44.160126,17.951538 44.309113,17.608398 44.611145,17.489624 C45.899628,16.98413 47.224274,16.529846 48.54721,16.14038 C48.861237,16.047363 49.18454,16.229797 49.275055,16.543518 C49.365692,16.856506 49.187378,17.18512 48.8761,17.276978 C47.585327,17.655945 46.293976,18.098572 45.03766,18.592712 C44.96762,18.620117 44.895508,18.632996 44.82434,18.632996 ZM73.07156,16.711914 C73.026245,16.711914 72.97989,16.707031 72.93399,16.6958 C71.62604,16.379211 70.28711,16.117004 68.95444,15.916077 C68.63342,15.868103 68.41278,15.566895 68.46039,15.243469 C68.50845,14.920044 68.806,14.698975 69.12756,14.7453 C70.49457,14.951477 71.86731,15.220886 73.20798,15.545959 C73.523254,15.621643 73.71747,15.94104 73.641815,16.25879 C73.57715,16.529846 73.336365,16.711914 73.07156,16.711914 ZM52.69867,16.315186 C52.424133,16.315186 52.17932,16.120667 52.12372,15.839111 C52.06009,15.518127 52.26654,15.206848 52.584564,15.143188 C53.938416,14.871704 55.320404,14.657043 56.693115,14.504456 C57.01355,14.468994 57.305267,14.703796 57.34085,15.028015 C57.376343,15.353027 57.143677,15.64502 56.821533,15.680847 C55.482544,15.829468 54.13388,16.039734 52.813904,16.304321 C52.774902,16.31195 52.73654,16.315186 52.69867,16.315186 ZM64.95825,15.48877 C64.94626,15.48877 64.933655,15.488342 64.92163,15.487549 C63.576385,15.404175 62.21112,15.378418 60.867004,15.40979 C60.551147,15.412231 60.273743,15.158508 60.266296,14.832275 C60.25885,14.505249 60.515686,14.234558 60.839417,14.226501 C62.2157,14.193909 63.615875,14.220459 64.993866,14.306274 C65.31763,14.326843 65.56354,14.607117 65.54352,14.93335 C65.52405,15.24707 65.26611,15.48877 64.95825,15.48877 ZM60.222717,98.81018 C60.212982,98.81018 60.203247,98.80975 60.193512,98.80939 C58.804657,98.74048 57.408936,98.58984 56.0448,98.361084 C55.725067,98.30835 55.50888,98.003845 55.562195,97.68085 C55.61496,97.35828 55.912415,97.13837 56.237427,97.194336 C57.556915,97.41547 58.907196,97.56085 60.250854,97.62689 C60.574707,97.643005 60.824554,97.9209 60.808533,98.24713 C60.79297,98.56372 60.533417,98.81018 60.222717,98.81018 ZM64.32666,98.77753 C64.01996,98.77753 63.761566,98.53711 63.741425,98.22461 C63.720245,97.89838 63.965485,97.61603 64.28879,97.59509 C65.631165,97.50647 66.97931,97.339355 68.29535,97.09729 C68.61511,97.0401 68.920105,97.25195 68.978,97.573364 C69.0365,97.894714 68.82489,98.20325 68.506165,98.26166 C67.14615,98.512146 65.752716,98.68494 64.36569,98.77637 C64.35242,98.77716 64.339264,98.77753 64.32666,98.77753 ZM52.136993,97.45697 C52.08368,97.45697 52.028625,97.44928 51.97415,97.43359 C50.64102,97.045715 49.316376,96.574524 48.03705,96.03284 C47.738464,95.905945 47.598022,95.559204 47.72357,95.257935 C47.849,94.95587 48.19348,94.81494 48.492157,94.941345 C49.729034,95.46533 51.0101,95.921265 52.299744,96.29584 C52.611023,96.38727 52.790894,96.71466 52.70096,97.02881 C52.627014,97.28821 52.39209,97.45697 52.136993,97.45697 ZM72.389496,97.29224 C72.13782,97.29224 71.90576,97.12909 71.82837,96.87378 C71.733154,96.561646 71.90747,96.23059 72.21759,96.134705 C73.500244,95.7384 74.773865,95.261536 76.00159,94.71863 C76.30084,94.586975 76.644745,94.72351 76.77545,95.022705 C76.90555,95.321594 76.770294,95.67078 76.47388,95.80206 C75.20383,96.36389 73.88776,96.856445 72.56137,97.26642 C72.50415,97.28375 72.44626,97.29224 72.389496,97.29224 ZM44.575073,94.25708 C44.47757,94.25708 44.37848,94.23212 44.287384,94.180176 C43.08139,93.4939 41.900024,92.727844 40.776672,91.90344 C40.51471,91.7113 40.456818,91.34119 40.647705,91.07703 C40.839172,90.81238 41.205383,90.754395 41.467896,90.94653 C42.554626,91.74475 43.69754,92.48541 44.863922,93.149536 C45.146484,93.311035 45.246277,93.67151 45.086975,93.95624 C44.979187,94.14874 44.779694,94.25708 44.575073,94.25708 ZM79.89349,93.971985 C79.69174,93.971985 79.4957,93.86725 79.38617,93.67914 C79.22287,93.39685 79.31625,93.03479 79.59607,92.86963 C80.752716,92.18695 81.88306,91.427795 82.95535,90.61383 C83.21561,90.416504 83.58295,90.47003 83.77728,90.73065 C83.97217,90.99121 83.92056,91.36255 83.66147,91.55908 C82.55298,92.40045 81.38489,93.18536 80.18921,93.8902 C80.096405,93.9458 79.99432,93.971985 79.89349,93.971985 ZM37.94861,89.39148 C37.806458,89.39148 37.663757,89.33911 37.55081,89.234436 C36.53,88.28516 35.553925,87.26819 34.650543,86.20978 C34.439056,85.962524 34.466522,85.588745 34.712463,85.37567 C34.956665,85.16266 35.327454,85.18921 35.5401,85.43854 C36.414185,86.46112 37.358765,87.4458 38.346405,88.3645 C38.584778,88.586 38.59967,88.960144 38.380157,89.200195 C38.264343,89.32709 38.10675,89.39148 37.94861,89.39148 ZM86.44031,89.00244 C86.285034,89.00244 86.13019,88.94122 86.01495,88.81836 C85.79144,88.58154 85.8006,88.2074 86.035645,87.98187 C87.00772,87.05029 87.93628,86.05072 88.79666,85.01123 C89.00287,84.76068 89.3732,84.72644 89.62314,84.93591 C89.871826,85.145325 89.9057,85.51788 89.69763,85.769165 C88.809235,86.84332 87.84918,87.87634 86.84497,88.83972 C86.731445,88.94849 86.58588,89.00244 86.44031,89.00244 ZM32.60089,83.13037 C32.412872,83.13037 32.227722,83.03937 32.114197,82.870605 C31.335297,81.71149 30.616028,80.4964 29.977448,79.25873 C29.82788,78.96875 29.939697,78.61194 30.226807,78.46051 C30.515106,78.3103 30.869293,78.423035 31.01831,78.71222 C31.63684,79.90881 32.332092,81.08484 33.086365,82.20685 C33.268097,82.476685 33.19818,82.84564 32.92935,83.0285 C32.8284,83.09735 32.714417,83.13037 32.60089,83.13037 ZM91.69052,82.655945 C91.580536,82.655945 91.46875,82.62451 91.36951,82.559265 C91.09839,82.380066 91.022766,82.01312 91.19992,81.739685 C91.9353,80.60797 92.61279,79.42023 93.21292,78.20996 C93.35791,77.91797 93.71039,77.799194 94.00052,77.9458 C94.2905,78.09241 94.40793,78.447205 94.26294,78.73999 C93.64221,79.99054 92.94183,81.21771 92.18237,82.387695 C92.06943,82.56171 91.88199,82.655945 91.69052,82.655945 ZM28.816803,75.80115 C28.580017,75.80115 28.357086,75.65619 28.26828,75.41974 C27.775848,74.115234 27.354004,72.76526 27.01355,71.40674 C26.934479,71.09021 27.124786,70.768005 27.438812,70.68823 C27.75467,70.60889 28.072815,70.80023 28.151886,71.11719 C28.480896,72.431335 28.889008,73.73706 29.365295,74.99927 C29.48056,75.30414 29.328583,75.646484 29.025421,75.76251 C28.956635,75.788635 28.886139,75.80115 28.816803,75.80115 ZM95.35779,75.26227 C95.29129,75.26227 95.22354,75.25061 95.15762,75.22681 C94.85275,75.11566 94.69574,74.776184 94.805725,74.46887 C95.26312,73.19617 95.650635,71.88281 95.957214,70.56665 C96.03174,70.24725 96.347015,70.05194 96.66287,70.12561 C96.97873,70.200134 97.17407,70.51831 97.10016,70.83685 C96.783264,72.19818 96.3826,73.55621 95.90973,74.87201 C95.82309,75.11243 95.59787,75.26227 95.35779,75.26227 ZM26.812378,67.78845 C26.52237,67.78845 26.270142,67.572205 26.231232,67.27417 C26.05066,65.89032 25.94812,64.479065 25.926819,63.079956 C25.921661,62.75293 26.180756,62.484253 26.504639,62.479004 C26.508057,62.479004 26.510925,62.479004 26.513794,62.479004 C26.834106,62.479004 27.095612,62.73761 27.100647,63.06183 C27.121338,64.41583 27.21988,65.78119 27.394745,67.119934 C27.437195,67.443726 27.210724,67.74133 26.889832,67.78406 C26.863403,67.786865 26.837646,67.78845 26.812378,67.78845 ZM97.23425,67.21619 C97.211945,67.21619 97.18964,67.214966 97.166626,67.212524 C96.84506,67.175476 96.613525,66.8819 96.65085,66.55768 C96.80328,65.214905 96.880646,63.847595 96.880646,62.493103 C96.881226,62.11212 96.87494,61.73236 96.863464,61.355774 C96.85318,61.02832 97.106995,60.755676 97.43146,60.74518 C97.743286,60.72589 98.02643,60.991272 98.03616,61.3183 C98.04874,61.708557 98.055145,62.100037 98.054474,62.493958 C98.054474,63.891846 97.97424,65.305115 97.81665,66.69177 C97.78223,66.993835 97.52896,67.21619 97.23425,67.21619 ZM26.6828,59.52771 C26.66394,59.52771 26.64447,59.52649 26.624329,59.52484 C26.302307,59.492676 26.066101,59.203064 26.098267,58.877625 C26.23468,57.482544 26.453583,56.084595 26.74759,54.722107 C26.816956,54.403137 27.129944,54.200134 27.44635,54.270203 C27.763245,54.339905 27.963867,54.654846 27.895203,54.973816 C27.60968,56.291626 27.398743,57.644043 27.266357,58.993652 C27.236603,59.299316 26.980927,59.52771 26.6828,59.52771 ZM97.08356,57.806335 C96.797,57.806335 96.54648,57.595276 96.50345,57.301697 C96.306946,55.963745 96.03058,54.623413 95.68152,53.31732 C95.59729,53.00116 95.78305,52.676514 96.09604,52.59198 C96.408356,52.50537 96.73108,52.693848 96.81531,53.00879 C97.17578,54.35962 97.46179,55.745483 97.66467,57.12854 C97.71228,57.451538 97.49051,57.751953 97.170166,57.800293 C97.14087,57.80432 97.11215,57.806335 97.08356,57.806335 ZM28.427582,51.45221 C28.364532,51.45221 28.299744,51.44171 28.236694,51.419983 C27.930115,51.31366 27.767273,50.976562 27.872772,50.667603 C28.322754,49.34784 28.855835,48.037292 29.457672,46.773438 C29.597412,46.47943 29.947144,46.3526 30.24054,46.49597 C30.532837,46.63733 30.656097,46.99054 30.515686,47.285767 C29.933838,48.50769 29.41806,49.775146 28.982391,51.052673 C28.898743,51.29712 28.671234,51.45221 28.427582,51.45221 ZM94.951416,49.828674 C94.71863,49.828674 94.497986,49.687744 94.40631,49.45575 C93.90988,48.2016 93.33377,46.96277 92.69473,45.772644 C92.54059,45.485046 92.646545,45.125793 92.9321,44.970764 C93.21521,44.814453 93.572845,44.92163 93.72757,45.20874 C94.38788,46.439148 94.98346,47.720703 95.49649,49.01715 C95.61676,49.32086 95.47003,49.66516 95.16919,49.78601 C95.097534,49.815002 95.02417,49.828674 94.951416,49.828674 ZM31.975586,43.999695 C31.868347,43.999695 31.75998,43.970337 31.662598,43.908325 C31.38861,43.733887 31.306702,43.368225 31.479736,43.09192 C32.221405,41.909058 33.039307,40.758423 33.909973,39.670593 C34.114624,39.416443 34.483673,39.376953 34.735443,39.582397 C34.98755,39.786987 35.02716,40.159912 34.823578,40.41443 C33.98047,41.46643 33.189575,42.580017 32.472504,43.723816 C32.36081,43.90265 32.17038,43.999695 31.975586,43.999695 ZM91.05261,42.563904 C90.86746,42.563904 90.68573,42.476135 90.57175,42.31183 C89.80017,41.204224 88.95767,40.130493 88.06641,39.120422 C87.8508,38.876343 87.87265,38.502197 88.11447,38.285522 C88.355835,38.068054 88.727875,38.08899 88.94336,38.333862 C89.86438,39.377747 90.73563,40.48694 91.53235,41.63275 C91.71869,41.899414 91.65448,42.269104 91.3891,42.45636 C91.28644,42.529663 91.168884,42.563904 91.05261,42.563904 ZM37.124878,37.56781 C36.973114,37.56781 36.821136,37.50824 36.706573,37.390625 C36.478943,37.15741 36.48239,36.783264 36.71344,36.55371 C37.703827,35.573425 38.760223,34.641052 39.85324,33.783203 C40.108917,33.582214 40.477417,33.628113 40.67688,33.88629 C40.875793,34.14447 40.829895,34.516174 40.57434,34.716797 C39.516785,35.546814 38.494263,36.448975 37.5365,37.398254 C37.421844,37.511414 37.273407,37.56781 37.124878,37.56781 ZM85.60455,36.390198 C85.46527,36.390198 85.32599,36.340637 85.213745,36.23999 C84.21124,35.33783 83.1474,34.485962 82.050934,33.70746 C81.78613,33.519775 81.72247,33.15088 81.90936,32.88385 C82.09567,32.616455 82.4613,32.552002 82.727295,32.74048 C83.8598,33.54474 84.95923,34.42517 85.99548,35.35675 C86.23743,35.574646 86.258575,35.948364 86.04251,36.192444 C85.9267,36.32373 85.765686,36.390198 85.60455,36.390198 ZM43.593292,32.492798 C43.39496,32.492798 43.201782,32.392517 43.091125,32.20807 C42.92267,31.929749 43.010895,31.56488 43.28772,31.39569 C44.47415,30.669128 45.71344,30.006226 46.972046,29.423462 C47.267303,29.28772 47.615204,29.419006 47.75049,29.715027 C47.885742,30.01184 47.756195,30.363464 47.46161,30.499573 C46.2442,31.062256 45.044525,31.704224 43.897583,32.406982 C43.80237,32.465393 43.69696,32.492798 43.593292,32.492798 ZM78.89957,31.632507 C78.80505,31.632507 78.70926,31.609558 78.61987,31.560425 C77.43921,30.914001 76.209656,30.331238 74.96533,29.828613 C74.66434,29.706604 74.51819,29.361816 74.63916,29.05896 C74.75897,28.754883 75.100586,28.608276 75.40216,28.72992 C76.68881,29.249878 77.959564,29.852783 79.18054,30.520508 C79.46536,30.676392 79.57077,31.035645 79.416046,31.323181 C79.30939,31.520569 79.107635,31.632507 78.89957,31.632507 ZM51.041687,29.05133 C50.794037,29.05133 50.563538,28.891785 50.483337,28.641296 C50.383636,28.33081 50.552094,27.996521 50.860535,27.89624 C52.17932,27.465271 53.53833,27.108032 54.899017,26.834595 C55.215454,26.771729 55.525574,26.979553 55.589233,27.299744 C55.65274,27.619934 55.446503,27.931274 55.128357,27.9953 C53.812286,28.259888 52.498047,28.605042 51.222717,29.021912 C51.162537,29.041626 51.101196,29.05133 51.041687,29.05133 ZM71.28961,28.556702 C71.238556,28.556702 71.18695,28.550293 71.135315,28.535767 C69.842834,28.182983 68.51315,27.902649 67.18448,27.702515 C66.863464,27.654175 66.64282,27.352905 66.69043,27.02948 C66.738525,26.706482 67.0372,26.484985 67.357635,26.531677 C68.73151,26.738708 70.10593,27.028687 71.4426,27.393982 C71.755615,27.47937 71.94006,27.804382 71.855286,28.120178 C71.78479,28.383118 71.54813,28.556702 71.28961,28.556702 ZM59.078064,27.433838 C58.775482,27.433838 58.518677,27.199463 58.4935,26.890137 C58.46765,26.564331 58.707855,26.278809 59.031128,26.252625 C60.006653,26.172485 60.99817,26.131775 61.978333,26.131775 C62.402466,26.122925 62.796265,26.137817 63.202637,26.152344 C63.52649,26.163574 63.780457,26.436646 63.76947,26.763672 C63.759155,27.090332 63.48987,27.34851 63.163727,27.334778 C62.769928,27.3219 62.39331,27.327148 61.978333,27.315063 C61.029724,27.315063 60.07025,27.354553 59.12625,27.431824 C59.11023,27.433044 59.094086,27.433838 59.078064,27.433838 Z"/>
</svg>