<svg xmlns="http://www.w3.org/2000/svg" xmlns:xlink="http://www.w3.org/1999/xlink" width="9px" height="9px" viewBox="0 0 9 9" version="1.1">
<path
 d="M 5.417969 8.9375 C 5.375 8.941406 5.347656 8.945312 5.320312 8.945312 C 4.71875 8.945312 4.117188 8.941406 3.515625 8.945312 C 3.433594 8.945312 3.410156 8.921875 3.410156 8.839844 C 3.410156 7.4375 3.410156 6.039062 3.410156 4.640625 C 3.410156 4.601562 3.410156 4.566406 3.410156 4.515625 C 3.085938 4.515625 2.765625 4.515625 2.445312 4.515625 C 2.445312 4.019531 2.445312 3.527344 2.445312 3.023438 C 2.476562 3.023438 2.507812 3.023438 2.539062 3.023438 C 2.800781 3.023438 3.066406 3.023438 3.328125 3.023438 C 3.394531 3.023438 3.414062 3.007812 3.414062 2.941406 C 3.410156 2.546875 3.410156 2.15625 3.414062 1.761719 C 3.414062 1.488281 3.460938 1.222656 3.585938 0.972656 C 3.765625 0.625 4.054688 0.398438 4.414062 0.257812 C 4.710938 0.140625 5.023438 0.0976562 5.335938 0.09375 C 5.84375 0.0859375 6.355469 0.0898438 6.863281 0.0859375 C 6.910156 0.0859375 6.949219 0.0859375 6.949219 0.152344 C 6.949219 0.636719 6.949219 1.121094 6.949219 1.601562 C 6.949219 1.609375 6.945312 1.613281 6.941406 1.636719 C 6.910156 1.636719 6.875 1.636719 6.84375 1.636719 C 6.527344 1.636719 6.210938 1.632812 5.894531 1.636719 C 5.710938 1.636719 5.5625 1.710938 5.46875 1.871094 C 5.441406 1.917969 5.425781 1.980469 5.425781 2.035156 C 5.417969 2.335938 5.425781 2.632812 5.421875 2.933594 C 5.421875 3.003906 5.441406 3.023438 5.511719 3.023438 C 5.949219 3.019531 6.390625 3.019531 6.828125 3.019531 C 6.863281 3.019531 6.898438 3.019531 6.957031 3.019531 C 6.894531 3.523438 6.835938 4.015625 6.773438 4.511719 C 6.316406 4.511719 5.871094 4.511719 5.417969 4.511719 C 5.417969 5.992188 5.417969 7.460938 5.417969 8.9375 Z M 5.417969 8.9375 "/>
</svg>
