<svg xmlns="http://www.w3.org/2000/svg" xmlns:xlink="http://www.w3.org/1999/xlink" width="15px" height="15px" viewBox="0 0 15 15" version="1.1">
<path 
 d="M 14.53125 6.5625 L 13.828125 6.5625 L 13.828125 5.859375 C 13.828125 5.730469 13.722656 5.625 13.59375 5.625 L 12.65625 5.625 C 12.527344 5.625 12.421875 5.730469 12.421875 5.859375 L 12.421875 6.5625 L 11.71875 6.5625 C 11.589844 6.5625 11.484375 6.667969 11.484375 6.796875 L 11.484375 7.734375 C 11.484375 7.863281 11.589844 7.96875 11.71875 7.96875 L 12.421875 7.96875 L 12.421875 8.671875 C 12.421875 8.800781 12.527344 8.90625 12.65625 8.90625 L 13.59375 8.90625 C 13.722656 8.90625 13.828125 8.800781 13.828125 8.671875 L 13.828125 7.96875 L 14.53125 7.96875 C 14.660156 7.96875 14.765625 7.863281 14.765625 7.734375 L 14.765625 6.796875 C 14.765625 6.667969 14.660156 6.5625 14.53125 6.5625 Z M 14.296875 7.5 L 13.59375 7.5 C 13.464844 7.5 13.359375 7.605469 13.359375 7.734375 L 13.359375 8.4375 L 12.890625 8.4375 L 12.890625 7.734375 C 12.890625 7.605469 12.785156 7.5 12.65625 7.5 L 11.953125 7.5 L 11.953125 7.03125 L 12.65625 7.03125 C 12.785156 7.03125 12.890625 6.925781 12.890625 6.796875 L 12.890625 6.09375 L 13.359375 6.09375 L 13.359375 6.796875 C 13.359375 6.925781 13.464844 7.03125 13.59375 7.03125 L 14.296875 7.03125 Z M 14.296875 7.5 "/>
<path 
d="M 10.503906 6.328125 L 5.625 6.328125 C 5.496094 6.328125 5.390625 6.433594 5.390625 6.5625 L 5.390625 8.4375 C 5.390625 8.566406 5.496094 8.671875 5.625 8.671875 L 8.417969 8.671875 C 7.925781 9.746094 6.816406 10.394531 5.636719 10.304688 C 4.460938 10.210938 3.46875 9.394531 3.152344 8.257812 C 2.832031 7.121094 3.257812 5.90625 4.21875 5.214844 C 5.175781 4.527344 6.460938 4.511719 7.4375 5.171875 C 7.539062 5.238281 7.671875 5.222656 7.75 5.128906 L 9.105469 3.515625 C 9.148438 3.464844 9.164062 3.402344 9.15625 3.339844 C 9.152344 3.273438 9.117188 3.214844 9.066406 3.179688 C 7.183594 1.777344 4.613281 1.75 2.707031 3.117188 C 0.800781 4.480469 -0.0078125 6.921875 0.714844 9.15625 C 1.433594 11.386719 3.515625 12.898438 5.859375 12.890625 C 7.0625 12.90625 8.238281 12.503906 9.179688 11.75 C 11.167969 10.109375 10.960938 7.097656 10.726562 6.480469 C 10.691406 6.386719 10.601562 6.328125 10.503906 6.328125 Z M 8.878906 11.386719 C 8.023438 12.070312 6.953125 12.4375 5.859375 12.421875 C 3.753906 12.421875 1.882812 11.078125 1.203125 9.085938 C 0.523438 7.089844 1.191406 4.886719 2.859375 3.601562 C 4.527344 2.316406 6.828125 2.234375 8.582031 3.398438 L 7.523438 4.667969 C 6.324219 3.964844 4.808594 4.09375 3.742188 4.992188 C 2.679688 5.890625 2.300781 7.363281 2.792969 8.664062 C 3.289062 9.964844 4.550781 10.8125 5.945312 10.777344 C 7.335938 10.742188 8.554688 9.832031 8.984375 8.507812 C 9.007812 8.433594 8.992188 8.355469 8.945312 8.292969 C 8.898438 8.230469 8.828125 8.195312 8.75 8.199219 L 5.859375 8.199219 L 5.859375 6.796875 L 10.328125 6.796875 C 10.488281 7.550781 10.546875 10.015625 8.878906 11.386719 Z M 8.878906 11.386719 "/>
</svg>
