<svg xmlns="http://www.w3.org/2000/svg" xmlns:xlink="http://www.w3.org/1999/xlink" width="15px" height="15px" viewBox="0 0 15 15" version="1.1">
<path d="M 2.335938 4.160156 L 2.316406 4.160156 C 1.246094 4.160156 0.46875 3.449219 0.46875 2.472656 C 0.46875 1.492188 1.261719 0.78125 2.355469 0.78125 C 3.429688 0.78125 4.195312 1.472656 4.21875 2.464844 C 4.21875 3.449219 3.425781 4.160156 2.335938 4.160156 Z M 2.355469 1.25 C 1.519531 1.25 0.9375 1.753906 0.9375 2.472656 C 0.9375 3.191406 1.503906 3.691406 2.316406 3.691406 L 2.335938 3.691406 C 3.167969 3.691406 3.75 3.1875 3.75 2.46875 C 3.734375 1.730469 3.183594 1.25 2.355469 1.25 Z M 2.355469 1.25 "/>
<path  d="M 3.515625 13.59375 L 1.171875 13.59375 C 1.042969 13.59375 0.9375 13.488281 0.9375 13.359375 L 0.9375 4.921875 C 0.9375 4.792969 1.042969 4.6875 1.171875 4.6875 L 3.515625 4.6875 C 3.644531 4.6875 3.75 4.792969 3.75 4.921875 L 3.75 13.359375 C 3.75 13.488281 3.644531 13.59375 3.515625 13.59375 Z M 1.40625 13.125 L 3.28125 13.125 L 3.28125 5.15625 L 1.40625 5.15625 Z M 1.40625 13.125 "/>
<path d="M 14.296875 13.59375 L 11.484375 13.59375 C 11.355469 13.59375 11.25 13.488281 11.25 13.359375 L 11.25 8.90625 C 11.25 8.132812 10.617188 7.5 9.84375 7.5 C 9.070312 7.5 8.4375 8.132812 8.4375 8.90625 L 8.4375 13.359375 C 8.4375 13.488281 8.332031 13.59375 8.203125 13.59375 L 5.390625 13.59375 C 5.261719 13.59375 5.15625 13.488281 5.15625 13.359375 L 5.15625 4.921875 C 5.15625 4.792969 5.261719 4.6875 5.390625 4.6875 L 8.203125 4.6875 C 8.332031 4.6875 8.4375 4.792969 8.4375 4.921875 L 8.4375 6.335938 C 8.4375 6.464844 8.332031 6.570312 8.203125 6.570312 C 8.074219 6.570312 7.96875 6.464844 7.96875 6.335938 L 7.96875 5.15625 L 5.625 5.15625 L 5.625 13.125 L 7.96875 13.125 L 7.96875 8.90625 C 7.96875 7.871094 8.808594 7.03125 9.84375 7.03125 C 10.878906 7.03125 11.71875 7.871094 11.71875 8.90625 L 11.71875 13.125 L 14.0625 13.125 L 14.0625 8.203125 C 14.0625 6.523438 12.695312 5.15625 11.015625 5.15625 C 10.367188 5.15625 9.738281 5.347656 9.199219 5.707031 C 9.09375 5.777344 8.949219 5.75 8.875 5.640625 C 8.804688 5.535156 8.832031 5.386719 8.941406 5.316406 C 9.558594 4.90625 10.273438 4.6875 11.015625 4.6875 C 12.953125 4.6875 14.53125 6.265625 14.53125 8.203125 L 14.53125 13.359375 C 14.53125 13.488281 14.425781 13.59375 14.296875 13.59375 Z M 14.296875 13.59375 "/>
</svg>
