<svg xmlns="http://www.w3.org/2000/svg" xmlns:xlink="http://www.w3.org/1999/xlink" width="12px" height="15px" viewBox="0 0 12 15" version="1.1">
<path d="M 11.8125 3.746094 C 11.582031 2.976562 11.207031 2.332031 10.671875 1.773438 C 10.148438 1.226562 9.546875 0.808594 8.832031 0.503906 C 8.015625 0.152344 7.070312 -0.015625 6.167969 0.0234375 C 5.835938 0.0390625 5.515625 0.0546875 5.199219 0.101562 C 4.3125 0.226562 3.527344 0.484375 2.808594 0.890625 C 1.886719 1.414062 1.167969 2.121094 0.671875 3 C 0.414062 3.457031 0.160156 4.261719 0.0546875 4.789062 C -0.0742188 5.40625 0.0390625 6.484375 0.292969 7.089844 C 0.613281 7.84375 0.878906 8.179688 1.519531 8.648438 C 1.523438 8.648438 1.921875 8.929688 2.1875 8.925781 C 2.667969 8.917969 2.765625 8.464844 2.808594 8.25 C 2.820312 8.207031 2.828125 8.167969 2.835938 8.128906 C 2.847656 8.097656 2.859375 8.0625 2.871094 8.023438 C 2.9375 7.808594 3.03125 7.515625 2.875 7.253906 C 2.820312 7.15625 2.75 7.082031 2.691406 7.011719 C 2.65625 6.976562 2.625 6.941406 2.597656 6.902344 C 2.367188 6.570312 2.253906 6.15625 2.253906 5.671875 C 2.253906 5.03125 2.402344 4.453125 2.707031 3.902344 C 3.257812 2.902344 4.175781 2.273438 5.359375 2.078125 C 6.03125 1.96875 6.816406 2.015625 7.402344 2.199219 C 7.941406 2.367188 8.398438 2.664062 8.726562 3.058594 C 9.074219 3.476562 9.273438 4.007812 9.316406 4.636719 C 9.34375 5.039062 9.308594 5.441406 9.277344 5.710938 C 9.160156 6.742188 8.851562 7.574219 8.363281 8.183594 C 7.960938 8.679688 7.53125 8.929688 7.042969 8.945312 C 6.730469 8.957031 6.496094 8.894531 6.28125 8.746094 C 6.082031 8.609375 5.964844 8.4375 5.90625 8.207031 C 5.84375 7.945312 5.921875 7.675781 6 7.386719 L 6.015625 7.34375 C 6.085938 7.089844 6.160156 6.859375 6.234375 6.632812 C 6.347656 6.273438 6.46875 5.902344 6.566406 5.476562 C 6.675781 4.992188 6.691406 4.601562 6.609375 4.28125 C 6.511719 3.882812 6.292969 3.585938 5.960938 3.394531 C 5.609375 3.195312 5.113281 3.15625 4.695312 3.296875 C 4.074219 3.503906 3.597656 4.058594 3.390625 4.8125 C 3.289062 5.195312 3.257812 5.597656 3.300781 6.007812 C 3.335938 6.328125 3.410156 6.621094 3.546875 6.972656 C 3.542969 6.988281 3.539062 7.003906 3.53125 7.019531 C 3.523438 7.050781 3.511719 7.082031 3.507812 7.109375 C 3.359375 7.703125 3.21875 8.292969 3.074219 8.878906 C 2.941406 9.4375 2.804688 9.996094 2.667969 10.558594 L 2.636719 10.683594 C 2.496094 11.257812 2.351562 11.847656 2.316406 12.554688 L 2.300781 12.851562 C 2.273438 13.402344 2.242188 13.96875 2.316406 14.496094 C 2.332031 14.597656 2.363281 14.828125 2.597656 14.910156 C 2.664062 14.960938 2.734375 14.980469 2.796875 14.980469 C 2.992188 14.980469 3.164062 14.789062 3.3125 14.625 C 3.789062 14.09375 4.199219 13.421875 4.558594 12.570312 C 4.71875 12.191406 4.824219 11.78125 4.929688 11.386719 L 4.992188 11.148438 C 5.066406 10.867188 5.140625 10.582031 5.210938 10.300781 L 5.21875 10.28125 C 5.351562 10.398438 5.507812 10.5 5.691406 10.597656 C 6.074219 10.804688 6.507812 10.925781 6.976562 10.957031 C 7.414062 10.988281 7.878906 10.929688 8.390625 10.789062 C 8.777344 10.679688 9.152344 10.515625 9.496094 10.300781 C 10.734375 9.527344 11.578125 8.171875 11.875 6.484375 C 11.960938 5.980469 12 5.578125 12 5.132812 C 12 4.617188 11.9375 4.152344 11.8125 3.746094 Z M 11.273438 6.382812 C 11.007812 7.902344 10.257812 9.113281 9.167969 9.796875 C 8.871094 9.980469 8.554688 10.121094 8.222656 10.214844 C 7.78125 10.339844 7.386719 10.386719 7.015625 10.363281 C 6.632812 10.335938 6.292969 10.242188 5.984375 10.074219 C 5.675781 9.910156 5.472656 9.730469 5.332031 9.492188 L 4.957031 8.859375 L 4.621094 10.15625 C 4.546875 10.4375 4.472656 10.71875 4.398438 11 L 4.335938 11.238281 C 4.234375 11.632812 4.136719 12.003906 3.992188 12.34375 C 3.671875 13.105469 3.3125 13.707031 2.894531 14.183594 C 2.863281 13.777344 2.886719 13.324219 2.910156 12.882812 L 2.925781 12.585938 C 2.957031 11.933594 3.097656 11.367188 3.230469 10.824219 L 3.261719 10.695312 C 3.402344 10.132812 3.535156 9.574219 3.671875 9.019531 C 3.8125 8.429688 3.953125 7.84375 4.101562 7.246094 C 4.105469 7.230469 4.113281 7.210938 4.117188 7.191406 C 4.15625 7.070312 4.191406 6.945312 4.140625 6.820312 C 4.011719 6.492188 3.941406 6.230469 3.910156 5.945312 C 3.875 5.609375 3.898438 5.277344 3.984375 4.964844 C 4.136719 4.40625 4.46875 4.003906 4.894531 3.863281 C 5 3.828125 5.109375 3.8125 5.214844 3.8125 C 5.390625 3.8125 5.550781 3.851562 5.652344 3.910156 C 5.839844 4.015625 5.957031 4.183594 6.015625 4.421875 C 6.074219 4.648438 6.058594 4.957031 5.96875 5.34375 C 5.875 5.75 5.765625 6.089844 5.648438 6.453125 C 5.574219 6.6875 5.5 6.921875 5.425781 7.183594 L 5.414062 7.226562 C 5.320312 7.558594 5.210938 7.933594 5.3125 8.34375 C 5.402344 8.71875 5.605469 9.007812 5.925781 9.234375 C 6.246094 9.457031 6.625 9.554688 7.0625 9.542969 C 7.734375 9.519531 8.332031 9.1875 8.84375 8.550781 C 9.402344 7.855469 9.753906 6.921875 9.886719 5.777344 C 9.917969 5.484375 9.957031 5.046875 9.925781 4.597656 C 9.875 3.84375 9.628906 3.199219 9.203125 2.683594 C 8.796875 2.199219 8.242188 1.832031 7.589844 1.628906 C 6.914062 1.417969 6.019531 1.363281 5.257812 1.488281 C 3.882812 1.714844 2.8125 2.453125 2.167969 3.621094 C 1.8125 4.257812 1.640625 4.929688 1.640625 5.671875 C 1.640625 6.277344 1.792969 6.804688 2.089844 7.234375 C 2.132812 7.296875 2.179688 7.351562 2.230469 7.40625 C 2.277344 7.457031 2.320312 7.503906 2.34375 7.550781 C 2.363281 7.597656 2.3125 7.765625 2.285156 7.847656 C 2.269531 7.894531 2.257812 7.9375 2.246094 7.976562 C 2.234375 8.027344 2.222656 8.078125 2.210938 8.128906 C 2.199219 8.183594 2.179688 8.269531 2.160156 8.320312 C 2.089844 8.292969 1.957031 8.21875 1.886719 8.167969 C 1.335938 7.769531 1.136719 7.511719 0.859375 6.859375 C 0.652344 6.371094 0.550781 5.402344 0.652344 4.90625 C 0.765625 4.347656 1.011719 3.636719 1.207031 3.289062 C 1.648438 2.507812 2.292969 1.875 3.113281 1.410156 C 3.765625 1.039062 4.476562 0.804688 5.289062 0.691406 C 5.574219 0.652344 5.882812 0.636719 6.195312 0.621094 C 7.003906 0.582031 7.855469 0.734375 8.585938 1.046875 C 9.222656 1.324219 9.761719 1.691406 10.226562 2.179688 C 10.695312 2.671875 11.023438 3.238281 11.226562 3.914062 C 11.335938 4.265625 11.390625 4.675781 11.390625 5.132812 C 11.390625 5.539062 11.355469 5.914062 11.273438 6.382812 Z M 11.273438 6.382812 "/>
</svg>
