<svg xmlns="http://www.w3.org/2000/svg" xmlns:xlink="http://www.w3.org/1999/xlink" width="14px" height="14px" viewBox="0 0 14 14" version="1.1">
<path d="M 9.484375 2.1875 C 10.09375 2.1875 10.679688 2.441406 11.097656 2.886719 L 11.261719 3.066406 L 11.5 3.019531 C 11.625 2.992188 11.742188 2.964844 11.863281 2.933594 C 11.835938 2.972656 11.707031 3.101562 11.5625 3.230469 C 11.441406 3.339844 11.078125 3.679688 11.078125 3.679688 C 11.078125 3.679688 11.433594 3.792969 11.652344 3.816406 C 11.875 3.84375 12.128906 3.800781 12.171875 3.796875 C 12.09375 3.859375 11.957031 3.953125 11.875 4.011719 L 11.683594 4.152344 L 11.695312 4.386719 C 11.699219 4.488281 11.703125 4.597656 11.703125 4.707031 C 11.703125 5.535156 11.542969 6.398438 11.238281 7.210938 C 10.917969 8.0625 10.460938 8.835938 9.871094 9.5 C 9.242188 10.214844 8.5 10.773438 7.652344 11.164062 C 6.730469 11.59375 5.703125 11.808594 4.605469 11.808594 C 3.8125 11.808594 3.035156 11.679688 2.292969 11.421875 C 2.566406 11.371094 2.828125 11.296875 3.089844 11.207031 C 3.683594 10.996094 4.234375 10.695312 4.734375 10.304688 L 5.699219 9.546875 L 4.46875 9.523438 C 3.757812 9.511719 3.113281 9.15625 2.710938 8.597656 C 2.910156 8.582031 3.109375 8.546875 3.300781 8.496094 L 4.960938 7.945312 L 3.273438 7.644531 C 2.464844 7.484375 1.828125 6.882812 1.597656 6.121094 C 1.808594 6.175781 2.019531 6.195312 2.25 6.210938 C 2.25 6.210938 3.121094 6.25 3.777344 6.207031 C 3.421875 6.039062 2.507812 5.410156 2.507812 5.410156 C 1.890625 4.996094 1.523438 4.308594 1.523438 3.566406 C 1.523438 3.390625 1.542969 3.214844 1.582031 3.046875 C 2.183594 3.660156 2.867188 4.171875 3.636719 4.5625 C 4.648438 5.085938 5.738281 5.378906 6.878906 5.4375 L 7.460938 5.464844 L 7.328125 4.898438 C 7.289062 4.738281 7.269531 4.570312 7.269531 4.394531 C 7.269531 3.179688 8.261719 2.1875 9.484375 2.1875 M 9.484375 1.75 C 8.019531 1.75 6.835938 2.9375 6.835938 4.398438 C 6.835938 4.609375 6.859375 4.808594 6.90625 5.003906 C 4.703125 4.894531 2.75 3.839844 1.445312 2.234375 C 1.21875 2.625 1.089844 3.082031 1.089844 3.566406 C 1.089844 4.484375 1.554688 5.296875 2.265625 5.773438 C 1.832031 5.761719 1.421875 5.640625 1.066406 5.441406 C 1.066406 5.453125 1.066406 5.464844 1.066406 5.472656 C 1.066406 6.757812 1.980469 7.828125 3.191406 8.070312 C 2.96875 8.132812 2.734375 8.164062 2.492188 8.164062 C 2.324219 8.164062 2.15625 8.148438 1.996094 8.117188 C 2.332031 9.167969 3.3125 9.933594 4.46875 9.957031 C 3.566406 10.667969 2.421875 11.089844 1.179688 11.089844 C 0.96875 11.089844 0.757812 11.078125 0.550781 11.050781 C 1.71875 11.8125 3.113281 12.25 4.605469 12.25 C 9.476562 12.25 12.140625 8.210938 12.140625 4.707031 C 12.140625 4.59375 12.136719 4.480469 12.132812 4.367188 C 12.648438 3.992188 13.097656 3.527344 13.453125 2.992188 C 12.976562 3.203125 12.46875 3.347656 11.933594 3.414062 C 12.480469 3.085938 12.902344 2.566406 13.097656 1.945312 C 12.585938 2.25 12.019531 2.472656 11.414062 2.589844 C 10.933594 2.074219 10.242188 1.75 9.484375 1.75 Z M 9.484375 1.75 "/>
</svg>
